<svg width="107" height="44" viewBox="0 0 107 44" fill="none" xmlns="http://www.w3.org/2000/svg">
<path d="M29.3502 43.9731H13.3535L22.8605 28.3975L29.3502 43.9731Z" fill="#4DC085"/>
<path d="M0 12.8354L13.3536 43.9731H29.3503L16.3764 12.8354H0Z" fill="#34726B"/>
<path d="M29.3502 43.9731L22.8605 28.3975L34.1691 9.86967H50.4793L29.3502 43.9731Z" fill="#7CD09B"/>
<path d="M50.9739 8.01636H34.7256L45.429 3.30299e-05L50.9739 8.01636Z" fill="#7CD09B"/>
<path d="M64.3422 15.4287L58.7037 24.203H57.4864L55.3176 15.4287H56.5019L58.3201 22.9184L63.108 15.4287H64.3422Z" fill="#414049"/>
<path d="M66.4943 17.1469C65.8709 17.6695 65.4485 18.3759 65.2265 19.2653H71.4815C71.4926 19.1881 71.4984 19.0822 71.4984 18.9489C71.4984 18.1259 71.2481 17.4892 70.7475 17.0385C70.2474 16.5882 69.5799 16.3629 68.7455 16.3629C67.8671 16.3629 67.1167 16.6242 66.4943 17.1469ZM65.1095 20.1495C65.0979 20.2277 65.0927 20.3442 65.0927 20.5C65.0927 21.3894 65.3454 22.068 65.8518 22.535C66.3576 23.002 67.1114 23.2355 68.1116 23.2355C68.6899 23.2355 69.2322 23.1383 69.7386 22.9436C70.2444 22.7494 70.6582 22.4793 70.981 22.1347L71.5152 22.9852C71.1032 23.3972 70.5893 23.7164 69.9716 23.9448C69.3545 24.1725 68.7015 24.2861 68.012 24.2861C66.7441 24.2861 65.7458 23.9529 65.0179 23.2855C64.289 22.6184 63.9252 21.7069 63.9252 20.5499C63.9252 19.5712 64.1337 18.6875 64.5503 17.8977C64.9676 17.1081 65.5459 16.4881 66.2857 16.0378C67.0247 15.5871 67.8561 15.3622 68.7796 15.3622C69.9466 15.3622 70.8755 15.693 71.565 16.3548C72.254 17.0164 72.5993 17.9256 72.5993 19.0822C72.5993 19.4048 72.5599 19.7601 72.4823 20.1495H65.1095Z" fill="#414049"/>
<path d="M82.4157 16.121C82.9657 16.627 83.2414 17.3251 83.2414 18.2145C83.2414 18.5257 83.2078 18.8595 83.1413 19.2152L82.14 24.203H80.9562L81.9568 19.1985C82.0124 18.8873 82.0403 18.6207 82.0403 18.3977C82.0403 17.7638 81.8484 17.2776 81.4643 16.9382C81.0807 16.5991 80.5165 16.4294 79.7712 16.4294C78.8262 16.4294 78.0474 16.6884 77.4361 17.2052C76.8243 17.7226 76.4128 18.4869 76.2018 19.4987L75.2673 24.203H74.0834L75.8182 15.4287H76.9527L76.6689 16.8298C77.5028 15.8516 78.6483 15.362 80.105 15.362C81.0947 15.362 81.8648 15.6147 82.4157 16.121Z" fill="#414049"/>
<path d="M91.3477 22.71C91.9259 22.36 92.379 21.8704 92.7075 21.2422C93.0355 20.6136 93.1995 19.9108 93.1995 19.132C93.1995 18.2756 92.9464 17.6057 92.4404 17.122C91.934 16.6381 91.2254 16.3965 90.3133 16.3965C89.5908 16.3965 88.9401 16.5744 88.3623 16.9301C87.7835 17.2859 87.3305 17.7783 87.0025 18.4066C86.6745 19.0347 86.5105 19.738 86.5105 20.5163C86.5105 21.3732 86.7631 22.0401 87.2695 22.5183C87.7754 22.9963 88.4846 23.2355 89.3961 23.2355C90.1187 23.2355 90.7699 23.0601 91.3477 22.71ZM95.8852 11.8253L93.4163 24.2032H92.2822L92.5656 22.8184C92.1427 23.2855 91.6425 23.647 91.0642 23.9025C90.4861 24.1586 89.8469 24.2861 89.1462 24.2861C88.4006 24.2861 87.739 24.136 87.1612 23.8359C86.5824 23.5357 86.1322 23.1046 85.8099 22.5432C85.4872 21.9817 85.326 21.3228 85.326 20.5666C85.326 19.577 85.54 18.6875 85.9682 17.8977C86.3963 17.1081 86.9885 16.4881 87.7448 16.0378C88.5009 15.5871 89.3462 15.3622 90.2803 15.3622C91.1031 15.3622 91.8012 15.5262 92.3737 15.8542C92.9464 16.1822 93.3607 16.6521 93.6166 17.2634L94.7008 11.8253H95.8852Z" fill="#414049"/>
<path d="M102.657 22.71C103.235 22.36 103.688 21.8704 104.017 21.2422C104.345 20.6136 104.509 19.9108 104.509 19.132C104.509 18.2756 104.255 17.6057 103.749 17.122C103.244 16.6381 102.534 16.3965 101.623 16.3965C100.9 16.3965 100.249 16.5744 99.6714 16.9301C99.0926 17.286 98.6394 17.7783 98.3114 18.4066C97.9836 19.0347 97.8196 19.738 97.8196 20.5163C97.8196 21.3732 98.0722 22.0401 98.5785 22.5183C99.0844 22.9963 99.7937 23.2355 100.706 23.2355C101.428 23.2355 102.079 23.0601 102.657 22.71ZM106.477 15.4288L104.725 24.2032H103.591L103.875 22.8184C103.452 23.2855 102.952 23.647 102.373 23.9025C101.795 24.1586 101.156 24.2861 100.455 24.2861C99.7102 24.2861 99.0479 24.136 98.4701 23.8359C97.8915 23.5357 97.4412 23.1046 97.119 22.5432C96.7963 21.9817 96.6351 21.3228 96.6351 20.5666C96.6351 19.577 96.849 18.6875 97.2773 17.8977C97.7054 17.1081 98.2976 16.4881 99.0537 16.0378C99.8104 15.5871 100.655 15.3622 101.589 15.3622C102.424 15.3622 103.124 15.5262 103.692 15.8542C104.259 16.1822 104.67 16.6521 104.926 17.2634L105.293 15.4288H106.477Z" fill="#414049"/>
<path d="M56.3522 31.179L49.7902 41.7491H46.6275L44.2894 31.179H47.3145L48.8476 38.3898L53.2872 31.179H56.3522Z" fill="#414049"/>
<path d="M64.1516 26.9946H67.5312L63.6799 29.8235H61.2046L64.1516 26.9946ZM62.5405 38.9297C63.0118 38.6353 63.3786 38.2258 63.6409 37.7017C63.9028 37.1786 64.0336 36.5759 64.0336 35.8945C64.0336 35.1743 63.8208 34.6047 63.3949 34.1856C62.9691 33.766 62.3765 33.5565 61.6175 33.5565C61.0148 33.5565 60.4777 33.7041 60.0064 33.9986C59.5345 34.2935 59.1682 34.7025 58.9059 35.2266C58.6436 35.7502 58.5132 36.3529 58.5132 37.0338C58.5132 37.7545 58.7261 38.3241 59.1519 38.7432C59.5772 39.1623 60.1699 39.3718 60.9294 39.3718C61.5317 39.3718 62.0691 39.2246 62.5405 38.9297ZM68.0419 31.179L65.9397 41.7492H63.0315L63.2281 40.7077C62.3506 41.5066 61.2704 41.906 59.9867 41.906C59.1615 41.906 58.4015 41.7166 57.7076 41.3368C57.0133 40.9571 56.46 40.41 56.0476 39.696C55.6347 38.9825 55.4286 38.141 55.4286 37.1714C55.4286 36.0057 55.687 34.9547 56.2044 34.0182C56.7218 33.0822 57.4256 32.3481 58.3166 31.8178C59.207 31.2869 60.1895 31.0223 61.2636 31.0223C62.8876 31.0223 64.0336 31.5526 64.7021 32.6138L64.9769 31.179H68.0419Z" fill="#414049"/>
<path d="M71.6761 27.1714H74.7411L71.8333 41.7491H68.7684L71.6761 27.1714Z" fill="#414049"/>
<path d="M77.5409 29.2443C77.2066 28.9364 77.0397 28.5599 77.0397 28.1141C77.0397 27.5909 77.2263 27.155 77.5998 26.8079C77.9729 26.4613 78.4606 26.2872 79.0633 26.2872C79.6003 26.2872 80.0357 26.4344 80.3699 26.7292C80.7036 27.0237 80.8706 27.3872 80.8706 27.8196C80.8706 28.3826 80.6807 28.8381 80.3009 29.1848C79.9206 29.5319 79.4296 29.706 78.8278 29.706C78.3032 29.706 77.8745 29.5522 77.5409 29.2443ZM76.7841 31.179H79.829L77.7269 41.7491H74.682L76.7841 31.179Z" fill="#414049"/>
<path d="M87.9433 38.9297C88.415 38.6353 88.7815 38.2258 89.0433 37.7017C89.3055 37.1786 89.4365 36.5759 89.4365 35.8945C89.4365 35.1743 89.2235 34.6047 88.7978 34.1856C88.3724 33.766 87.7793 33.5565 87.0197 33.5565C86.4175 33.5565 85.8805 33.7041 85.4091 33.9986C84.9377 34.2934 84.5704 34.7025 84.3086 35.2266C84.0469 35.7502 83.9154 36.3529 83.9154 37.0338C83.9154 37.7545 84.1284 38.3241 84.5541 38.7432C84.9799 39.1623 85.5726 39.3718 86.3327 39.3718C86.9349 39.3718 87.4719 39.2246 87.9433 38.9297ZM94.2301 27.1714L91.3228 41.7492H88.415L88.6308 40.6886C87.7399 41.5003 86.6597 41.906 85.3894 41.906C84.5642 41.906 83.8047 41.7166 83.1104 41.3368C82.416 40.9571 81.8628 40.41 81.4498 39.696C81.038 38.9825 80.8313 38.141 80.8313 37.1714C80.8313 36.0057 81.0898 34.9547 81.6072 34.0182C82.1245 33.0822 82.8285 32.3481 83.7194 31.8178C84.6097 31.2869 85.5922 31.0223 86.6663 31.0223C87.4388 31.0223 88.1169 31.1531 88.6999 31.415C89.2825 31.6768 89.7443 32.0633 90.0847 32.574L91.1655 27.1714H94.2301Z" fill="#414049"/>
<path d="M101.499 38.9297C101.97 38.6353 102.337 38.2258 102.599 37.7017C102.861 37.1786 102.992 36.5759 102.992 35.8945C102.992 35.1743 102.779 34.6047 102.353 34.1856C101.928 33.766 101.335 33.5565 100.576 33.5565C99.9728 33.5565 99.4358 33.7041 98.9644 33.9986C98.493 34.2935 98.1262 34.7025 97.8639 35.2266C97.6021 35.7502 97.4712 36.3529 97.4712 37.0338C97.4712 37.7545 97.6841 38.3241 98.1099 38.7432C98.5353 39.1623 99.1284 39.3718 99.8874 39.3718C100.49 39.3718 101.027 39.2246 101.499 38.9297ZM107 31.1791L104.898 41.7492H101.989L102.187 40.7077C101.309 41.5066 100.228 41.906 98.9448 41.906C98.1195 41.906 97.36 41.7166 96.6656 41.3368C95.9713 40.9571 95.418 40.41 95.0056 39.696C94.5932 38.9825 94.3866 38.141 94.3866 37.1714C94.3866 36.0057 94.645 34.9547 95.1629 34.0182C95.6803 33.0822 96.3836 32.3481 97.2746 31.8178C98.165 31.2869 99.1475 31.0223 100.222 31.0223C101.846 31.0223 102.992 31.5526 103.66 32.6138L103.935 31.1791H107Z" fill="#414049"/>
</svg>
